<svg width="140" height="65" viewBox="0 0 140 65" fill="none" xmlns="http://www.w3.org/2000/svg">
<path d="M71.8906 12.6208C72.8589 12.6208 73.7509 12.7772 74.5641 13.0886C75.3773 13.4001 76.0777 13.8412 76.6643 14.412C77.2533 14.9829 77.7102 15.6494 78.0398 16.4093C78.3683 17.1716 78.5343 18.0005 78.5343 18.901C78.5343 19.593 78.4204 20.2341 78.1962 20.8206C77.9708 21.4096 77.6084 21.9974 77.1079 22.5852C76.6061 23.1742 75.9396 23.7971 75.1106 24.4539C74.2793 25.1108 73.2407 25.8549 71.996 26.6851C71.8579 26.7554 71.8409 26.8414 71.9439 26.9444C72.2893 27.325 72.8274 27.8352 73.5533 28.4763C74.2793 29.1174 75.0925 29.8167 75.9917 30.5777C76.8909 31.3388 77.835 32.1084 78.8203 32.8864C79.8068 33.6657 80.7497 34.3831 81.6489 35.04C81.7859 35.1782 81.8901 35.1782 81.9616 35.04C82.513 34.245 83.0499 33.2755 83.5686 32.1338C84.0885 30.9934 84.5199 29.9027 84.8665 28.8653C85.0047 28.5199 85.0641 28.1563 85.0471 27.7758C85.0289 27.3965 84.7793 27.1189 84.2945 26.9444C84.017 26.8414 83.6461 26.7372 83.1795 26.633C82.7118 26.53 82.2015 26.4439 81.6477 26.3736C81.5786 26.3736 81.535 26.2961 81.518 26.1409C81.501 25.9846 81.4926 25.821 81.4926 25.6477C81.4926 25.4744 81.5107 25.3108 81.5447 25.1556C81.5798 24.9993 81.6307 24.9048 81.701 24.8696C82.0816 24.8696 82.7214 24.8951 83.6207 24.9472C84.5199 24.9993 85.5234 25.0248 86.6311 25.0248C88.1532 25.0248 89.3457 24.9993 90.2111 24.9472C91.0764 24.8951 91.6472 24.8696 91.9235 24.8696C91.9926 24.9739 92.035 25.2332 92.0532 25.6489C92.0701 26.0646 92.0095 26.3239 91.8714 26.4282C91.4908 26.4984 91.1103 26.5663 90.731 26.6354C90.3504 26.7057 90.0378 26.7735 89.7966 26.8438C89.2427 27.0171 88.8186 27.2413 88.5253 27.5189C88.232 27.7964 87.9617 28.1248 87.7206 28.5042C86.7862 30.1305 85.9827 31.5739 85.3089 32.8367C84.6338 34.1008 83.9855 35.1454 83.3625 35.9768C83.3286 36.0119 83.3286 36.0725 83.3625 36.1586C83.3965 36.2446 83.4328 36.2871 83.4668 36.2871C84.1939 36.8409 84.9707 37.4214 85.8021 38.0261C86.6335 38.6321 87.4115 39.2199 88.1387 39.7907C88.8646 40.3615 89.513 40.8887 90.0838 41.3734C90.6546 41.8582 91.0606 42.2387 91.303 42.5151C91.303 42.7926 91.2157 43.138 91.0436 43.5525C90.8691 43.9681 90.6704 44.3911 90.4462 44.8238C90.222 45.2564 89.9869 45.6551 89.7457 46.0175C89.5045 46.3799 89.3312 46.6307 89.227 46.7701C89.1567 46.8392 89.0185 46.8816 88.8125 46.8985C88.6041 46.9167 88.4647 46.8901 88.3956 46.821C88.2223 46.5095 87.9714 46.1811 87.643 45.8357C87.3146 45.4903 87.0468 45.2128 86.8395 45.0055L80.6115 40.0234C80.5776 39.9543 80.5085 39.9543 80.4043 40.0234C78.6397 42.1697 76.84 43.6567 75.0076 44.4868C73.1728 45.3182 71.3561 45.7327 69.5577 45.7327C68.0694 45.7327 66.7206 45.5061 65.5099 45.0577C64.298 44.608 63.269 43.9754 62.4219 43.1634C61.5736 42.3515 60.9167 41.3819 60.4501 40.2585C59.9836 39.135 59.7497 37.9146 59.7497 36.5985C59.7497 35.9077 59.8539 35.2412 60.0611 34.6013C60.2684 33.9626 60.6404 33.313 61.1773 32.6562C61.713 31.9993 62.4304 31.2891 63.3309 30.528C64.2301 29.767 65.3548 28.9198 66.7048 27.9842C66.8078 27.8812 66.826 27.7952 66.7557 27.7249C65.8904 26.7226 65.1815 25.6671 64.6288 24.5594C64.075 23.4529 63.7987 22.1392 63.7987 20.6158C63.7987 19.4391 64.0229 18.358 64.4737 17.3715C64.9233 16.3863 65.5196 15.5476 66.2637 14.8556C67.0078 14.1636 67.8634 13.6182 68.8329 13.2195C69.7976 12.8208 70.818 12.6208 71.8906 12.6208ZM67.9991 29.1247C67.964 29.1247 67.9119 29.1162 67.844 29.0992C67.7737 29.0822 67.7216 29.0907 67.6889 29.1247C66.6842 30.0251 65.8201 30.9328 65.0942 31.849C64.367 32.7664 64.0047 33.9687 64.0047 35.4569C64.0047 36.5294 64.2034 37.499 64.6022 38.3618C64.9997 39.2271 65.5535 39.97 66.2625 40.5942C66.9714 41.2171 67.7931 41.6922 68.7275 42.0206C69.6619 42.3502 70.6641 42.5139 71.7367 42.5139C72.9825 42.5139 74.2538 42.2291 75.5506 41.657C76.8473 41.0862 77.9635 40.2488 78.8979 39.1411C79.0021 38.9678 79.0191 38.8478 78.95 38.7775C78.0507 38.0164 77.1079 37.2299 76.1214 36.4167C75.1361 35.6035 74.1581 34.7819 73.1898 33.9517C72.2202 33.1203 71.2955 32.2999 70.4133 31.4867C69.5298 30.6735 68.7251 29.8857 67.9991 29.1247ZM70.9574 14.2824C69.9527 14.2824 69.0802 14.6896 68.3361 15.5028C67.5919 16.316 67.2211 17.5 67.2211 19.0573C67.2211 20.2353 67.5144 21.3939 68.1034 22.5343C68.6911 23.6759 69.5043 24.7145 70.5429 25.6477C70.5769 25.6828 70.629 25.7095 70.6981 25.7252C70.7671 25.7434 70.8362 25.7168 70.9053 25.6477C72.219 24.6454 73.231 23.6153 73.9399 22.5597C74.6501 21.5054 75.0052 20.3201 75.0052 19.0052C75.0052 18.4853 74.9179 17.9411 74.7446 17.3691C74.5713 16.7983 74.3205 16.2881 73.992 15.8385C73.6636 15.3888 73.2394 15.0168 72.7207 14.7223C72.202 14.4302 71.6131 14.2824 70.9574 14.2824Z" fill="#A1A1A0"/>
<path d="M57.098 58.5838C57.1634 58.7159 57.1634 59.0637 57.098 59.6224C57.0313 60.1835 56.932 60.5301 56.8011 60.661C56.0097 60.9252 54.839 61.2718 53.2914 61.6996C51.7426 62.1286 49.9962 62.5395 48.0547 62.937C46.112 63.3321 44.0384 63.6787 41.8328 63.9756C39.6259 64.2725 37.4372 64.4204 35.2642 64.4204C23.6068 64.4204 14.8156 61.6172 8.88816 56.0097C2.96191 50.4034 0 42.3527 0 31.8636C0 25.2684 1.54519 19.5433 4.64162 14.6944C7.73684 9.84557 11.9846 6.20135 17.3849 3.76056C20.1492 2.44079 23.0796 1.48459 26.1749 0.890756C29.2701 0.296919 32.7604 0 36.6458 0C40.6621 0 44.1851 0.281164 47.2136 0.841067C50.2434 1.40218 53.2405 1.84816 56.206 2.1778C56.0085 3.10249 55.8097 4.22351 55.6122 5.54207C55.4134 6.86184 55.2317 8.26281 55.0681 9.7474C54.902 11.2332 54.7542 12.6839 54.6221 14.1018C54.49 15.5222 54.4245 16.791 54.4245 17.9121C54.3579 18.0454 54.1773 18.1435 53.8804 18.209C53.5835 18.2768 53.2526 18.3253 52.8915 18.358C52.5279 18.3908 52.1825 18.4077 51.8529 18.4077C51.522 18.4077 51.2917 18.3423 51.1596 18.209C50.9621 16.3632 50.7318 14.7805 50.4688 13.4595C50.2059 12.1397 49.892 11.0187 49.5308 10.0952C49.1697 9.17175 48.7237 8.41309 48.1977 7.81925C47.6718 7.22542 47.0476 6.73096 46.3241 6.33466C44.8092 5.41118 42.9998 4.71797 40.8935 4.25623C38.7884 3.79449 36.1222 3.56302 32.8961 3.56302C29.0132 3.56302 25.6574 4.2223 22.8276 5.53965C19.9978 6.857 17.6273 8.70152 15.7197 11.072C13.8122 13.4437 12.3966 16.3063 11.4756 19.6657C10.5533 23.0239 10.0928 26.7129 10.0928 30.7304C10.0928 35.0097 10.6527 38.9787 11.7749 42.6326C12.896 46.289 14.5951 49.4678 16.871 52.1667C19.147 54.8657 21.9671 56.9901 25.3314 58.539C28.6956 60.0878 32.6198 60.8598 37.1075 60.8598C38.4927 60.8598 39.7616 60.7628 40.9178 60.5641C42.0715 60.3677 43.012 60.0405 43.7379 59.58C44.4638 59.2516 44.9753 58.6953 45.2722 57.9051C45.5691 57.1174 45.7824 56.2957 45.9157 55.4425C46.0466 53.9337 46.129 52.3085 46.1629 50.5682C46.1956 48.8267 46.1787 47.1034 46.1132 45.3958C45.9799 43.7536 45.7 42.572 45.2722 41.8485C44.8432 41.125 43.9027 40.5675 42.452 40.1736C41.5274 39.9773 40.5724 39.8125 39.5822 39.6816C38.5921 39.5507 37.3378 39.3871 35.8217 39.1884C35.6884 39.1241 35.6072 38.9411 35.5745 38.6454C35.5405 38.3485 35.5248 38.0516 35.5248 37.7547C35.5248 37.4578 35.5575 37.1608 35.6241 36.8651C35.6884 36.5682 35.7877 36.3864 35.9211 36.321C37.4384 36.321 39.3677 36.3695 41.7104 36.4688C44.0518 36.5682 46.7265 36.6179 49.7344 36.6179C52.6685 36.6179 54.9432 36.5852 56.5575 36.5185C58.1718 36.4531 59.4733 36.3876 60.4635 36.321C60.5289 36.3876 60.5774 36.5682 60.6125 36.8651C60.6453 37.1608 60.6622 37.4759 60.6622 37.8044C60.6622 38.134 60.6283 38.4467 60.5629 38.7436C60.4962 39.0405 60.4295 39.2235 60.3653 39.2877C59.7715 39.4198 59.1934 39.535 58.6335 39.6343C58.0724 39.7325 57.5609 39.8489 57.0992 39.9797C56.1745 40.3106 55.548 40.8208 55.2195 41.514C54.8887 42.2072 54.6899 43.2798 54.6257 44.7304C54.6257 45.4576 54.6087 46.3471 54.576 47.4015C54.5421 48.4583 54.5263 49.5296 54.5263 50.6179C54.5263 51.7062 54.5263 52.7133 54.5263 53.6356C54.5263 54.5603 54.559 55.2535 54.6257 55.714C54.6911 56.4411 54.839 56.9853 55.0717 57.3476C55.2995 57.71 55.9758 58.1221 57.098 58.5838Z" fill="#742427"/>
<path d="M74.7895 60.0684C76.571 59.8709 78.0204 59.6236 79.1439 59.3267C80.2649 59.0298 81.2223 58.585 82.0137 57.99C82.8038 57.3961 83.531 56.5405 84.1915 55.4171C84.8496 54.2961 85.5767 52.7788 86.3681 50.8651C87.2237 48.8861 88.1641 46.5774 89.1882 43.9379C90.2111 41.2995 91.2824 38.5449 92.4046 35.675C93.5244 32.8052 94.6297 29.9027 95.718 26.9662C96.8063 24.031 97.8291 21.2933 98.7853 18.7531C99.7415 16.2142 100.581 13.9382 101.309 11.9252C102.036 9.91345 102.562 8.37916 102.892 7.32359C103.289 6.26923 103.635 5.24516 103.931 4.25624C104.228 3.26732 104.443 2.4105 104.575 1.68335C104.772 1.68335 105.151 1.70032 105.713 1.73304C106.271 1.76576 106.981 1.78152 107.84 1.78152C108.828 1.78152 109.587 1.76576 110.115 1.73304C110.644 1.70032 110.972 1.68335 111.104 1.68335C111.303 2.4105 111.533 3.21763 111.798 4.10718C112.061 4.99793 112.356 5.90565 112.687 6.82913C113.016 7.75382 113.577 9.33657 114.371 11.5786C115.161 13.8231 116.067 16.3778 117.091 19.2476C118.113 22.1174 119.201 25.1847 120.356 28.4508C121.51 31.7169 122.648 34.8679 123.77 37.9025C124.891 40.9372 125.914 43.7076 126.837 46.2138C127.761 48.7213 128.52 50.6676 129.113 52.0516C129.839 53.701 130.465 55.0062 130.993 55.9612C131.521 56.9186 132.148 57.6603 132.875 58.1875C133.6 58.7171 134.489 59.1134 135.546 59.3752C136.601 59.6394 138.021 59.8696 139.801 60.0672C140 60.1993 140.05 60.661 139.95 61.4536C139.851 62.2462 139.735 62.7407 139.604 62.9382C138.284 62.8715 136.501 62.8049 134.26 62.7407C132.016 62.6728 129.773 62.6413 127.531 62.6413C126.344 62.6413 125.09 62.657 123.77 62.691C122.449 62.7225 121.197 62.7564 120.01 62.7891C118.822 62.8219 117.749 62.8546 116.793 62.8885C115.837 62.92 115.094 62.9382 114.567 62.9382C114.434 62.7407 114.335 62.262 114.27 61.5021C114.203 60.7446 114.27 60.2647 114.467 60.0672C115.588 59.9363 116.596 59.7884 117.486 59.6224C118.376 59.4576 119.183 59.2443 119.91 58.9789C120.568 58.6505 120.949 58.2711 121.048 57.8421C121.146 57.4131 121.129 56.9683 120.998 56.5054C120.668 55.451 120.271 54.1797 119.811 52.6951C119.35 51.2105 118.838 49.6775 118.277 48.0935C117.715 46.5095 117.154 44.9607 116.594 43.4422C116.032 41.9249 115.521 40.6063 115.06 39.4829C114.992 39.352 114.863 39.2041 114.664 39.0381C114.466 38.8745 114.301 38.7909 114.169 38.7909C113.442 38.7254 112.274 38.7097 110.657 38.7412C109.041 38.7751 107.11 38.7909 104.868 38.7909C103.285 38.7909 102.015 38.7909 101.059 38.7909C100.101 38.7909 99.3598 38.7909 98.8314 38.7909C98.303 38.7909 97.8752 38.7909 97.5443 38.7909C97.2135 38.7909 96.9166 38.7909 96.6536 38.7909C96.4572 38.7909 96.2585 38.9072 96.0609 39.1375C95.8634 39.3689 95.7313 39.5507 95.6646 39.6816C95.1363 41.0014 94.5776 42.469 93.9825 44.0845C93.3899 45.7024 92.8276 47.2682 92.3004 48.7855C91.7708 50.304 91.3248 51.6892 90.9636 52.9424C90.6001 54.1955 90.3844 55.119 90.3213 55.7128C90.2535 56.5708 90.3856 57.281 90.7164 57.8409C91.0448 58.402 91.9683 58.8795 93.4868 59.2758C94.8066 59.6067 96.3906 59.8696 98.2363 60.0672C98.3684 60.2647 98.4011 60.7446 98.3357 61.5021C98.269 62.262 98.1697 62.7394 98.04 62.9382C96.9832 62.9382 95.3011 62.8885 92.9924 62.7891C90.6825 62.691 88.1435 62.6413 85.3719 62.6413C82.536 62.6413 80.2928 62.691 78.6434 62.7891C76.9939 62.8885 75.7093 62.9382 74.7834 62.9382C74.5859 62.7407 74.4865 62.262 74.4865 61.5021C74.4926 60.7446 74.5919 60.2659 74.7895 60.0684ZM105.764 11.9749C105.697 11.9749 105.616 11.9592 105.516 11.9252C105.417 11.8925 105.334 11.9422 105.269 12.0731C104.873 13.3274 104.33 14.8932 103.637 16.7741C102.943 18.655 102.25 20.6183 101.558 22.6615C100.865 24.7072 100.172 26.6863 99.4797 28.5987C98.7865 30.5123 98.2424 32.1278 97.8461 33.4476C97.8461 33.8426 97.977 34.0753 98.2412 34.1396C98.7696 34.2062 99.7415 34.2389 101.161 34.2389C102.579 34.2389 104.244 34.2389 106.159 34.2389C107.345 34.2389 108.615 34.2389 109.969 34.2389C111.319 34.2389 112.261 34.2062 112.789 34.1396C112.92 34.1396 113.036 34.0584 113.134 33.8923C113.234 33.7287 113.217 33.5457 113.085 33.3482C112.556 31.8321 111.962 30.0675 111.304 28.0545C110.644 26.0428 109.968 24.014 109.276 21.9695C108.582 19.925 107.922 18.0102 107.295 16.2299C106.67 14.4484 106.16 13.0305 105.764 11.9749Z" fill="#742427"/>
</svg>
